<?xml version="1.0" encoding="iso-8859-1"?>
<!-- Generator: Adobe Illustrator 19.0.0, SVG Export Plug-In . SVG Version: 6.00 Build 0)  -->
<svg version="1.1" id="Layer_1" xmlns="http://www.w3.org/2000/svg" xmlns:xlink="http://www.w3.org/1999/xlink" x="0px" y="0px"
	 viewBox="0 0 502 502" style="enable-background:new 0 0 502 502;" xml:space="preserve">
<g>
	<g>
		<g>
			<path d="M200.444,341.549c1.978,2.299,4.772,3.478,7.585,3.478c2.309,0,4.63-0.796,6.516-2.42
				c4.187-3.603,4.661-9.916,1.058-14.103c-9.562-11.111-16.936-23.694-21.917-37.399c-1.886-5.19-7.626-7.871-12.814-5.982
				c-5.19,1.886-7.869,7.624-5.982,12.814C180.702,313.924,189.299,328.597,200.444,341.549z"/>
			<path d="M307.034,190.277c14.394,0,28.291,5.197,39.133,14.635c1.894,1.648,4.233,2.457,6.562,2.457
				c2.792,0,5.569-1.163,7.547-3.435c3.626-4.165,3.188-10.481-0.978-14.108c-14.483-12.607-33.043-19.549-52.264-19.549
				c-5.522,0-10,4.478-10,10C297.034,185.799,301.512,190.277,307.034,190.277z"/>
			<path d="M307.034,329.546c43.91,0,79.634-35.724,79.634-79.634c0-5.522-4.478-10-10-10c-5.522,0-10,4.478-10,10
				c0,32.882-26.752,59.634-59.634,59.634c-32.883,0-59.635-26.752-59.635-59.634c0-5.522-4.478-10-10-10c-5.522,0-10,4.478-10,10
				C227.399,293.822,263.123,329.546,307.034,329.546z"/>
			<path d="M305.945,54.945c-108.104,0-196.054,87.95-196.054,196.055c0,43.676,14.279,85.346,40.598,119.477H102H10
				c-5.522,0-10,4.478-10,10v56.578c0,5.522,4.478,10,10,10h92h203.945C414.05,447.055,502,359.104,502,251
				S414.05,54.945,305.945,54.945z M92,427.055H20v-36.578h72V427.055z M305.945,427.055H112v-36.578h195.034
				c77.508,0,140.564-63.057,140.564-140.564s-63.057-140.564-140.564-140.564S166.47,172.404,166.47,249.912
				c0,5.522,4.478,10,10,10c5.522,0,10-4.478,10-10c0-66.479,54.085-120.564,120.564-120.564s120.564,54.085,120.564,120.564
				s-54.085,120.564-120.564,120.564h-130.38c-30.188-32.63-46.762-74.891-46.762-119.477c0-97.077,78.978-176.055,176.054-176.055
				C403.022,74.945,482,153.923,482,251S403.022,427.055,305.945,427.055z"/>
		</g>
	</g>
</g>
<g>
</g>
<g>
</g>
<g>
</g>
<g>
</g>
<g>
</g>
<g>
</g>
<g>
</g>
<g>
</g>
<g>
</g>
<g>
</g>
<g>
</g>
<g>
</g>
<g>
</g>
<g>
</g>
<g>
</g>
</svg>
